<?xml version="1.0" standalone="no"?>
<!DOCTYPE svg PUBLIC "-//W3C//DTD SVG 20010904//EN"
 "http://www.w3.org/TR/2001/REC-SVG-20010904/DTD/svg10.dtd">
<svg version="1.0" xmlns="http://www.w3.org/2000/svg"
 width="2106.000000pt" height="2106.000000pt" viewBox="0 0 2106.000000 2106.000000"
 preserveAspectRatio="xMidYMid meet">
<metadata>
Created by potrace 1.11, written by Peter Selinger 2001-2013
</metadata>
<g transform="translate(0.000000,2106.000000) scale(0.100000,-0.100000)"
fill="#000000" stroke="none">
<path d="M16749 20876 c-2 -2 -44 -7 -93 -10 -110 -9 -146 -13 -261 -33 -49
-8 -103 -17 -120 -20 -16 -2 -48 -9 -70 -15 -22 -5 -48 -12 -58 -14 -10 -1
-57 -15 -105 -29 -275 -83 -466 -199 -629 -384 -67 -76 -204 -265 -248 -342
-5 -10 -24 -42 -41 -71 -17 -29 -48 -84 -69 -123 -21 -38 -41 -74 -45 -80 -4
-5 -36 -64 -70 -130 -34 -66 -92 -176 -128 -245 -383 -735 -429 -797 -597
-803 -80 -2 -137 9 -452 89 -670 171 -1218 304 -1498 363 -55 12 -118 26 -140
31 -35 9 -231 48 -320 64 -205 39 -495 85 -625 101 -146 17 -225 25 -310 30
-52 4 -106 9 -120 11 -36 6 -597 6 -650 0 -25 -3 -79 -8 -120 -11 -96 -7 -169
-15 -250 -26 -36 -5 -74 -10 -85 -10 -11 0 -94 -11 -185 -25 -140 -21 -226
-35 -400 -68 -448 -84 -1232 -275 -1975 -481 -321 -89 -397 -98 -473 -55 -39
22 -105 103 -147 180 -31 58 -205 409 -205 415 0 12 -228 471 -283 570 -260
471 -502 687 -894 799 -129 37 -315 71 -338 62 -8 -3 -15 -2 -15 3 0 4 -6 8
-12 8 -7 1 -71 4 -143 8 -418 25 -856 -10 -1300 -101 -819 -170 -1375 -504
-1886 -1134 -96 -118 -240 -317 -314 -433 -114 -178 -136 -213 -148 -237 -6
-14 -14 -27 -17 -30 -3 -3 -11 -16 -19 -30 -167 -290 -335 -627 -445 -892
-172 -418 -271 -730 -362 -1143 -12 -55 -55 -340 -62 -410 -15 -169 -8 -569
13 -690 14 -77 47 -236 55 -262 59 -193 92 -286 133 -373 14 -30 34 -75 45
-100 29 -63 138 -266 161 -298 10 -15 20 -31 22 -37 6 -14 122 -189 130 -195
3 -3 11 -15 18 -28 7 -13 54 -77 104 -144 51 -66 101 -133 112 -147 22 -29
201 -243 364 -435 192 -224 233 -303 256 -494 6 -49 6 -276 0 -342 -9 -98 -25
-251 -31 -290 -3 -19 -7 -53 -10 -75 -2 -22 -7 -58 -10 -80 -6 -50 -72 -479
-80 -520 -2 -16 -7 -41 -9 -55 -13 -68 -67 -379 -72 -405 -9 -54 -93 -497
-129 -678 -19 -97 -33 -181 -29 -186 3 -5 1 -12 -4 -15 -5 -4 -12 -25 -16 -49
-4 -23 -20 -112 -36 -197 -34 -175 -75 -448 -85 -560 -3 -41 -8 -83 -9 -92
-27 -138 -26 -1011 0 -1418 21 -322 71 -833 85 -870 2 -3 2 -9 1 -13 -5 -25
62 -419 103 -614 79 -373 263 -967 398 -1293 14 -33 21 -49 63 -155 36 -89
113 -265 175 -400 37 -81 241 -493 269 -545 11 -19 70 -127 132 -240 193 -355
333 -577 498 -790 88 -113 94 -120 111 -139 8 -9 26 -30 38 -46 81 -103 367
-397 533 -546 287 -260 631 -516 1050 -781 54 -35 280 -165 389 -225 76 -43
376 -193 485 -243 397 -185 875 -362 1330 -493 177 -51 437 -120 495 -131 14
-2 57 -12 95 -21 39 -9 81 -19 95 -21 14 -3 66 -13 115 -24 98 -20 345 -66
410 -75 22 -3 49 -8 61 -10 31 -7 126 -19 154 -19 14 -1 27 -4 30 -7 11 -12
777 -97 863 -95 26 1 47 -1 47 -4 0 -3 8 -6 18 -6 27 -1 243 -15 284 -20 21
-2 97 -6 170 -9 73 -3 156 -7 183 -10 28 -2 127 -6 220 -9 94 -4 231 -9 305
-11 885 -32 1599 -36 1950 -10 30 2 96 7 145 10 314 20 994 99 1215 141 14 2
41 7 60 10 19 2 58 9 85 14 28 5 66 12 85 15 178 28 626 132 820 191 150 45
501 171 595 214 11 5 95 40 186 79 426 180 1023 491 1356 708 46 29 87 53 92
53 5 0 11 3 13 8 2 4 68 50 148 102 79 52 151 101 160 108 8 7 69 51 135 99
190 136 511 397 675 549 191 178 523 525 579 608 8 12 17 23 20 26 26 23 199
253 271 360 24 36 46 67 50 70 7 5 189 299 252 405 277 470 545 1085 744 1710
128 399 302 1083 349 1365 3 19 8 42 10 50 5 16 42 269 49 335 16 135 27 250
31 320 2 44 7 89 9 101 8 40 20 431 20 659 -1 205 -10 519 -19 637 -2 24 -6
84 -10 133 -3 50 -8 110 -10 135 -2 25 -7 79 -10 120 -3 41 -8 91 -10 110 -2
19 -7 60 -10 90 -3 30 -10 93 -15 140 -6 47 -12 103 -15 125 -6 57 -35 284
-41 325 -3 19 -7 46 -9 60 -2 14 -9 61 -15 105 -18 131 -20 142 -51 350 -16
110 -36 241 -44 290 -8 50 -26 162 -40 250 -21 127 -88 533 -110 665 -2 14
-13 79 -24 145 -11 66 -32 197 -46 290 -14 94 -28 181 -30 195 -19 116 -38
297 -41 400 -6 215 12 257 179 419 379 367 589 595 738 801 30 41 56 77 60 80
14 13 130 213 162 282 64 135 135 338 154 438 2 13 10 53 18 90 22 107 51 342
61 495 4 65 3 574 -1 654 -5 105 -17 266 -30 401 -19 197 -19 192 -60 475 -3
22 -20 110 -36 195 -140 716 -429 1290 -963 1910 -137 159 -451 470 -600 595
-27 22 -62 53 -80 68 -45 41 -413 317 -422 317 -4 0 -15 6 -23 14 -63 57 -524
305 -651 352 -329 119 -557 177 -815 208 -27 4 -66 9 -85 12 -42 6 -525 16
-531 10z"/>
</g>
</svg>
